<svg xmlns="http://www.w3.org/2000/svg" viewBox="0 0 482.26 697.35"><defs><style>.cls-1{fill:#fecd99;}.cls-2{fill:#281611;}.cls-10,.cls-12,.cls-14,.cls-15,.cls-19,.cls-20,.cls-3,.cls-4,.cls-7,.cls-8,.cls-9{fill:none;}.cls-10,.cls-19,.cls-3,.cls-7,.cls-8{stroke:#000;}.cls-10,.cls-12,.cls-14,.cls-15,.cls-19,.cls-3,.cls-4,.cls-7,.cls-8,.cls-9{stroke-miterlimit:10;}.cls-3{stroke-width:8px;}.cls-4{stroke:#593733;}.cls-5{fill:#50341f;}.cls-6{fill:#fff;}.cls-12,.cls-14,.cls-15,.cls-7,.cls-8{stroke-linecap:round;}.cls-12,.cls-15,.cls-7{stroke-width:4px;}.cls-14,.cls-8{stroke-width:2px;}.cls-9{stroke:#472c29;}.cls-10{stroke-width:6px;}.cls-11{fill:#a86b5b;}.cls-12{stroke:#b96d54;}.cls-13{fill:#d6a87f;}.cls-14,.cls-15{stroke:#704840;}.cls-16{fill:#5e452d;}.cls-17{fill:#bc9653;}.cls-18{fill:#aa7e4f;}.cls-19{stroke-width:3px;}</style></defs><title>bitmoji</title><g id="sourcils_-_nez_-_bouche-_yeux" data-name="sourcils - nez - bouche- yeux"><path class="cls-1" d="M706.49,341l.41,0A2.83,2.83,0,0,1,706.49,341Z" transform="translate(-632.93 -162.65)"/><path class="cls-1" d="M699.85,681c-8.67,26.64-39.67-28-41.88-32-34-116,21-96,21-96l.25.09C683.77,589.64,703,705,703,705c2,41,17.43,70.36,54.5,94.5a751.59,751.59,0,0,1,74,52c16,10,53,10,69,0,28.28-20.79,50-35,74-47,48-27.33,59-64,62-100,0,0,18.5-140.5,19.5-148.5,0,0,59-23,25,93,0,0-32.76,60-41.88,32" transform="translate(-632.93 -162.65)"/><path class="cls-1" d="M699.85,681,688,615l6.5-86.34a48.48,48.48,0,0,1,2.78-12.93l5.75-15.8a63.44,63.44,0,0,0,3.79-20.73c.38-26.78,7.79-98,77.18-79.2,85,23,74,41,165,20s84,16,82,32c-2,15.73-1,39.18,9.44,66.56a6.92,6.92,0,0,1,.45,3c-.76,10.73-2.3,75.74,9.61,84L1039.12,681" transform="translate(-632.93 -162.65)"/><path class="cls-2" d="M1105,407l-24,2,20-33-27,11c31-55,21-72,21-72l-37,23c17-16,28-63,28-63l-39,27c12-10,17-31,17-31l-22,8c5-11,2-35,2-35l-16,22c7-25-17-66-17-66,1,12-18,37-18,37l-3-34-25,18c3-25-19-46-19-46,0,13-8,28-8,28l-5-7c-19,21-32,25-32,25l12-27c-41,6-67,39-67,39l1-12c-45,11-71,54-71,54l16-45c-69,42-67,78-67,78l-11-18-3,34-14-41c-19.91,51.59,2,57.31,6.28,57.93C662.73,336.53,640,381,640,381l32-11c-55,57-17.43,183.28-17.43,183.28l4.45,0c8.32-3.44,17-.3,17-.3l.25.09,0,.28,13.34.06,1.87-24.77a48.48,48.48,0,0,1,2.78-12.93l5.75-15.8a63.44,63.44,0,0,0,3.79-20.73c.38-26.78,7.79-98,77.18-79.2,85,23,74,41,165,20s84,16,82,32c-2,15.73-1,39.18,9.44,66.56a6.92,6.92,0,0,1,.45,3c-.32,4.46-1.2,18.2-1.27,33.34l20.14.08a29.55,29.55,0,0,1,13.66.06H1074c15-67,5-105,5-105l21-2-10-23Z" transform="translate(-632.93 -162.65)"/><path class="cls-2" d="M1039,552l5,44s12-34,8-45S1039,552,1039,552Z" transform="translate(-632.93 -162.65)"/><path class="cls-2" d="M689,542l-13,1,6,38S696,571,689,542Z" transform="translate(-632.93 -162.65)"/><path class="cls-3" d="M686.36,611.73" transform="translate(-632.93 -162.65)"/><path class="cls-3" d="M655.57,550.28S618,424,673,367l-32,11s23-45,64-40c0,0-29-1-7-58l14,41,3-34,11,18s-2-36,67-78l-16,45s26-43,71-54l-1,12s26-33,67-39l-12,27s13-4,32-25l5,7s8-15,8-28c0,0,22,21,19,46l25-18,3,34s19-25,18-37c0,0,24,41,17,66l16-22s3,24-2,35l22-8s-5,21-17,31l39-27s-11,47-28,63l37-23s10,17-21,72l27-11-20,33,24-2-15,18,10,23-21,2s10,38-5,105" transform="translate(-632.93 -162.65)"/><path class="cls-3" d="M697.85,678c-8.67,26.64-39.67-28-41.88-32-34-116,21-96,21-96l.25.09C681.77,586.64,701,702,701,702c2,41,17.43,70.36,54.5,94.5a751.59,751.59,0,0,1,74,52c16,10,53,10,69,0,28.28-20.79,50-35,74-47,48-27.33,59-64,62-100,0,0,18.5-140.5,19.5-148.5,0,0,59-23,25,93,0,0-32.76,60-41.88,32" transform="translate(-632.93 -162.65)"/><path class="cls-3" d="M686,612l6.5-86.34a48.48,48.48,0,0,1,2.78-12.93l5.75-15.8a63.44,63.44,0,0,0,3.79-20.73c.38-26.78,7.79-98,77.18-79.2,85,23,74,41,165,20s84,16,82,32c-2,15.73-1,39.18,9.44,66.56a6.92,6.92,0,0,1,.45,3c-.76,10.73-4.8,75.24,7.11,83.49" transform="translate(-632.93 -162.65)"/><path d="M836,545s7-19-23-20-57-12-84,16c0,0,34-11,61-5S836,545,836,545Z" transform="translate(-632.93 -162.65)"/><path d="M895.71,545s-7-19,23-20,57-12,84,16c0,0-34-11-61-5S895.71,545,895.71,545Z" transform="translate(-632.93 -162.65)"/><path class="cls-4" d="M841.62,559.5a247.16,247.16,0,0,1-4.9,73.74,50.19,50.19,0,0,1-5.7,14.4l-5.92,10.09a42.05,42.05,0,0,0-5.69,16.92c-.77,7.41.59,15.13,10.59,12.35,12.86-3.57,17-.51,18.38,1.53a19.59,19.59,0,0,0,4.42,5c5.35,4.07,15.87,9.16,28.31,0a17.55,17.55,0,0,0,2.81-2.64c2.6-3,10.52-10.35,21.08-3.85,12.19,7.5,11.19-14.88,6.9-21.83-.8-1.29-1.59-2.58-2.26-3.94l-9.07-18.55a26.28,26.28,0,0,1-1.81-4.83,244.35,244.35,0,0,1-6.26-79.35" transform="translate(-632.93 -162.65)"/><path class="cls-5" d="M949,554a22,22,0,1,1-22,22A22,22,0,0,1,949,554Zm9,22a9,9,0,0,0-8-8.94V567a7,7,0,1,0-9.64,6.48A8.77,8.77,0,0,0,940,576a9,9,0,0,0,18,0Z" transform="translate(-632.93 -162.65)"/><path d="M950,567.06A9,9,0,1,1,940,576a8.77,8.77,0,0,1,.36-2.52A6.79,6.79,0,0,0,943,574,7,7,0,0,0,950,567.06Z" transform="translate(-632.93 -162.65)"/><path class="cls-6" d="M899.5,583.5c-4.38-3.56,55-68,99-4l.14.16c-51,66-98.06,4.83-98.06,4.83ZM971,576a22,22,0,1,0-22,22A22,22,0,0,0,971,576Z" transform="translate(-632.93 -162.65)"/><path class="cls-6" d="M950,567v.06a8.26,8.26,0,0,0-1-.06,9,9,0,0,0-8.64,6.48A7,7,0,1,1,950,567Z" transform="translate(-632.93 -162.65)"/><path class="cls-6" d="M949,567a8.26,8.26,0,0,1,1,.06,7,7,0,0,1-7,6.94,6.79,6.79,0,0,1-2.64-.52A9,9,0,0,1,949,567Z" transform="translate(-632.93 -162.65)"/><path class="cls-6" d="M831.5,583.5,831,585c-58,60-98-6-98-6l.5-.5C731.85,575.77,793.5,514.5,831.5,583.5ZM806,576a22,22,0,1,0-22,22A22,22,0,0,0,806,576Z" transform="translate(-632.93 -162.65)"/><path class="cls-5" d="M784,554a22,22,0,1,1-22,22A22,22,0,0,1,784,554Zm9,22a9,9,0,0,0-8-8.94V567a7,7,0,1,0-9.64,6.48A8.77,8.77,0,0,0,775,576a9,9,0,0,0,18,0Z" transform="translate(-632.93 -162.65)"/><path d="M785,567.06A9,9,0,1,1,775,576a8.77,8.77,0,0,1,.36-2.52A6.79,6.79,0,0,0,778,574,7,7,0,0,0,785,567.06Z" transform="translate(-632.93 -162.65)"/><path class="cls-6" d="M785,567.06a8.26,8.26,0,0,0-1-.06,9,9,0,0,0-8.64,6.48A7,7,0,1,1,785,567Z" transform="translate(-632.93 -162.65)"/><path class="cls-6" d="M784,567a8.26,8.26,0,0,1,1,.06,7,7,0,0,1-7,6.94,6.79,6.79,0,0,1-2.64-.52A9,9,0,0,1,784,567Z" transform="translate(-632.93 -162.65)"/><path class="cls-7" d="M733.5,578.5c-1.65-2.73,60-64,98,5" transform="translate(-632.93 -162.65)"/><path class="cls-8" d="M733,579s40,66,98,6" transform="translate(-632.93 -162.65)"/><path class="cls-7" d="M899.5,583.5c-4.38-3.56,55-68,99-4" transform="translate(-632.93 -162.65)"/><path class="cls-8" d="M900.58,584.49s47,61.19,98.06-4.83" transform="translate(-632.93 -162.65)"/><path class="cls-9" d="M788.5,468.5s74,22,160,0" transform="translate(-632.93 -162.65)"/><path class="cls-10" d="M800,735s70,18,131-1" transform="translate(-632.93 -162.65)"/><circle cx="163.57" cy="570.85" r="5.5"/><circle cx="301.57" cy="569.85" r="5.5"/><path class="cls-11" d="M842.83,763.44l45.22-.87a.93.93,0,0,1,.48,1.75c-7,3.91-25.77,11.92-46.12.88A.93.93,0,0,1,842.83,763.44Z" transform="translate(-632.93 -162.65)"/><path class="cls-12" d="M671.5,579.5" transform="translate(-632.93 -162.65)"/><path class="cls-12" d="M659.5,565.5" transform="translate(-632.93 -162.65)"/><path class="cls-13" d="M686,656s-46-46-22-89C674.42,563.4,681,601,686,656Z" transform="translate(-632.93 -162.65)"/><path class="cls-14" d="M670,585c-3,.57-13,38.34,16,72" transform="translate(-632.93 -162.65)"/><path class="cls-15" d="M659.5,565.5s14-6,12,14" transform="translate(-632.93 -162.65)"/><path class="cls-13" d="M1046.07,657s46-46,22-89C1057.64,564.4,1051.05,602,1046.07,657Z" transform="translate(-632.93 -162.65)"/><path class="cls-14" d="M1062.07,586c3,.57,13,38.34-16,72" transform="translate(-632.93 -162.65)"/><path class="cls-15" d="M1072.57,566.5s-14-6-12,14" transform="translate(-632.93 -162.65)"/><polygon class="cls-16" points="392.07 396.35 417.07 389.35 416.07 397.35 393.07 404.75 392.07 396.35"/><polygon class="cls-16" points="77.07 395.35 48.07 384.35 49.07 393.35 74.07 402.35 77.07 395.35"/><rect class="cls-17" x="63.07" y="393.35" width="17" height="9" rx="4"/><rect class="cls-17" x="387.07" y="395.35" width="17" height="9" rx="4"/><path d="M787.37,724.7c11.57-6.2,23.34-5.63,35.5-1.73,15.06,4.82,30.48,5.29,46.16,5.72,15.34.42,30.67.07,45.81-2.69,7.25-1.32,14.16-3.9,21.37-5.34a20.16,20.16,0,0,1,7.26-.15,7.09,7.09,0,0,1,2.42,1c1.32.84-.47-1.37,1.05,1.12,8.07,13.14,28.84,1.1,20.73-12.11a29.35,29.35,0,0,0-19.95-13.56c-9.15-1.66-17.92.45-26.7,2.94-15.85,4.49-31.86,5.25-48.26,4.92-8.4-.17-16.85-.36-25.23-1-7.88-.6-14.95-3.08-22.48-5.27A65.89,65.89,0,0,0,775.26,704c-13.62,7.3-1.51,28,12.11,20.72Z" transform="translate(-632.93 -162.65)"/><path d="M851.81,785.16v8.78c0,6.27,5.52,12.29,12,12s12-5.28,12-12v-8.78c0-6.28-5.52-12.29-12-12s-12,5.27-12,12Z" transform="translate(-632.93 -162.65)"/><path d="M693,629s23,89,32,79v-9s22,40,18,17c0,0,18,30,17,11,0,0,51,88,104,91s116-97,116-97-4,14,1,8,16-21,16-21c1.06-2.36-3.5,19.41,8,2l13-25s-2,14,3,3,20-59,20-59,5,132-53,165-96,58-96,58-47,7-55,0-73.76-42.47-84-58C738.73,772.36,706,800.4,693,629Z" transform="translate(-632.93 -162.65)"/><path class="cls-18" d="M840.48,564.43c.15,1.21,1.52,5.28,1.44,6.72,0-.85,49.65-.64,49.64.2a.86.86,0,0,0,.88-1c-.17-1.44-.29-4.14.9-5.77a.27.27,0,0,0-.22-.41c0-1.06-52.22-1.42-52.22-.35C840.59,563.84,840.44,564.13,840.48,564.43Z" transform="translate(-632.93 -162.65)"/><path class="cls-19" d="M841.39,570.61c.67-42.12-132.71-44.25-133.39-2.13C706.34,672.35,839.73,674.48,841.39,570.61Z" transform="translate(-632.93 -162.65)"/><path class="cls-19" d="M892.6,570.61c-.68-42.12,132.71-44.25,133.38-2.13" transform="translate(-632.93 -162.65)"/><path class="cls-19" d="M1026,568.48c1.67,103.87-131.72,106-133.38,2.13" transform="translate(-632.93 -162.65)"/></g><g id="oreilles"><path class="cls-20" d="M623,798" transform="translate(-632.93 -162.65)"/></g></svg>