<?xml version="1.0" encoding="utf-8"?>
<!-- Generator: Adobe Illustrator 23.0.5, SVG Export Plug-In . SVG Version: 6.00 Build 0)  -->
<svg version="1.1" id="Layer_1" xmlns="http://www.w3.org/2000/svg" xmlns:xlink="http://www.w3.org/1999/xlink" x="0px" y="0px"
	 viewBox="0 0 512 512" style="enable-background:new 0 0 512 512;" xml:space="preserve">
<style type="text/css">
	.st0{fill:#FED940;}
	.st1{fill:#FDBF2D;}
	.st2{fill:#E0E3EE;}
	.st3{fill:#C3CADD;}
	.st4{fill:#EF7A06;}
	.st5{fill:#F7A20B;}
	.st6{fill:#F5F5F7;}
</style>
<g>
	<g>
		<path class="st0" d="M120.7,246.3c-16.8,52.2-9.7,111.1,18.8,155.3c6.1,9.5,13.1,18.1,20.7,25.6h191.6c7.6-7.5,14.5-16,20.7-25.6
			c28.5-44.2,35.6-103.2,18.8-155.3l-28.4-88.1H149.1L120.7,246.3z"/>
		<path class="st1" d="M400.3,303.9c0,34.8-9.5,69.3-27.8,97.7c-6.1,9.5-13.1,18.1-20.7,25.6H256v-269h106.9l17.4,53.9l11,34.2
			C397.3,265,400.3,284.5,400.3,303.9L400.3,303.9z"/>
		<path class="st2" d="M374.3,138H137.7L101,230l36.1-21.1c14-8.2,30.7-7.4,44.1,2l3.3,2.3c14.6,10.3,33,10.2,47.6-0.3
			c14.6-10.5,33.3-10.5,47.9,0c14.5,10.4,33,10.5,47.6,0.3l3.3-2.3c13.4-9.4,30.1-10.2,44.1-2L411,230L374.3,138z"/>
		<path class="st3" d="M411,230l-30.7-17.9l-5.4-3.1c-14-8.2-30.7-7.4-44.1,2l-3.3,2.3c-7.2,5.1-15.4,7.6-23.6,7.6
			c-8.3,0-16.6-2.6-24-7.9c-7.3-5.3-15.6-7.9-24-7.9V138h118.3l2.5,6.2L411,230z"/>
		<path class="st4" d="M304.9,119.8l43-26.4l95.5,155.5l-43,26.4L304.9,119.8z"/>
		<path class="st5" d="M319.9,113.5h50.4V296h-50.4V113.5z"/>
		<path class="st6" d="M379.2,144.2H132.8c-10,0-18.2-8.1-18.2-18.2V99.2c0-10,8.1-18.2,18.2-18.2h246.5c10,0,18.2,8.1,18.2,18.2
			V126C397.4,136.1,389.3,144.2,379.2,144.2z"/>
		<path class="st2" d="M397.4,99.2V126c0,10-8.1,18.2-18.2,18.2H256V81h123.3C389.3,81,397.4,89.1,397.4,99.2L397.4,99.2z"/>
	</g>
</g>
</svg>
