<svg xmlns="http://www.w3.org/2000/svg" viewBox="0 0 616.08 481.08"><title>user-plus</title><g id="Calque_1" data-name="Calque 1"><path d="M224,245A112,112,0,1,0,112,133,112,112,0,0,0,224,245Zm81.67,52.92H290.45a158.72,158.72,0,0,1-132.9,0H142.33a122.53,122.53,0,0,0-122.5,122.5v37.91a43.76,43.76,0,0,0,43.75,43.75H384.42a43.76,43.76,0,0,0,43.75-43.75V420.42A122.53,122.53,0,0,0,305.67,297.92Z" transform="translate(-19.83 -21)"/></g><g id="Calque_2" data-name="Calque 2"><rect x="482.56" y="107" width="43.04" height="224" rx="10"/><rect x="502.39" y="128" width="43.04" height="224" rx="10" transform="translate(744.08 -304.91) rotate(90)"/></g></svg>